<svg xmlns="http://www.w3.org/2000/svg" aria-hidden="true" style="position:absolute;width:0;height:0;overflow:hidden">
  <defs>
    <symbol id="close-icon" viewBox="0 0 32 32">
      <path d="m30.143 5.146-3.289-3.289L16 12.711 5.146 1.857 1.857 5.146 12.711 16 1.857 26.854l3.289 3.289L16 19.289l10.854 10.854 3.289-3.289L19.289 16 30.143 5.146z"/>
    </symbol>
    <symbol id="check-mark-icon" viewBox="0 0 32 32">
      <path fill="none" stroke="#e8e8e2" stroke-linecap="round" stroke-linejoin="round" stroke-width="3.556" d="M26.667 8 12 22.667 5.333 16" style="stroke:var(--color1, #e8e8e2)"/>
    </symbol>
    <symbol id="facebook-icon" viewBox="0 0 32 32">
      <path fill="#e8e8e2" d="M19.519 4.64h.96v3.6h-1.2c-.48 0-.96 0-1.2.24s-.24.48-.24 1.04v1.28h2.64v3.04h-2.64v13.2h-4.08V13.76h-2.16v-3.04h2.16V9.68c0-1.76.24-3.04.72-3.6.72-1.04 2.16-1.52 4.32-1.52.24.08.48.08.72.08z" opacity=".8" style="fill:var(--color1, #e8e8e2)"/>
    </symbol>
    <symbol id="instagram-icon" viewBox="0 0 32 32">
      <path fill="#e8e8e2" d="M31.262 9.707a11.116 11.116 0 0 0-.715-3.774 7.856 7.856 0 0 0-4.492-4.484 11.275 11.275 0 0 0-3.729-.715C20.685.661 20.165.64 15.999.64s-4.7 0-6.329.094a11.273 11.273 0 0 0-3.727.715 7.856 7.856 0 0 0-4.492 4.484 11.138 11.138 0 0 0-.715 3.721C.663 11.294.64 11.813.64 15.972s0 4.69.096 6.318a11.22 11.22 0 0 0 .715 3.725 7.857 7.857 0 0 0 4.493 4.482 11.23 11.23 0 0 0 3.727.766c1.643.073 2.163.095 6.329.095s4.7 0 6.329-.095a11.242 11.242 0 0 0 3.729-.714 7.87 7.87 0 0 0 4.492-4.484c.449-1.192.689-2.449.715-3.725.073-1.638.096-2.158.096-6.318-.003-4.159-.003-4.687-.099-6.317zM15.989 23.838c-4.357 0-7.886-3.524-7.886-7.873s3.53-7.873 7.886-7.873c4.354 0 7.886 3.524 7.886 7.873s-3.533 7.873-7.886 7.873zm8.2-14.202a1.835 1.835 0 1 1 0-3.672 1.836 1.836 0 1 1 0 3.672z" style="fill:var(--color1, #e8e8e2)"/>
    </symbol>
    <symbol id="logo-icon" viewBox="0 0 32 32">
      <path  d="M17.487 4.624a5.36 5.36 0 0 0-1.817-1.707c-2.011-1.153-4.601-.951-6.992.388C4.239 5.792 1.333 10.466 1.333 16c0 7.387 5.347 13.351 12.329 14.48a14.67 14.67 0 0 0 2.337.187 14.625 14.625 0 0 0 10.426-4.32 14.613 14.613 0 0 0 4.24-10.46c-.031-2.576-1.064-5.737-2.697-8.264-1.627-2.517-4.128-4.811-7.236-4.781-1.517.003-2.553.837-3.245 1.784v-.001zm8.873 5.526a6.332 6.332 0 0 0-1.684-.044l-1.547-2.6-2.291 1.36 1.189 2a9.055 9.055 0 0 0-1.42.833 7.286 7.286 0 0 0-.024-.077c-.356-1.08-1.044-1.967-1.961-2.848l.005-.027c.092-.431.239-.987.459-1.527.497-1.221 1.075-1.716 1.653-1.716h.015c1.721-.019 3.515 1.303 4.975 3.561.227.351.437.712.632 1.083l-.001.001zm-8.215 3.996c-.44.011-.892.06-1.333.156a5.013 5.013 0 0 0-1.416-1.527c-1.053-.74-2.496-1.107-4.056-.524a18.259 18.259 0 0 0-.432-.241l4.311-4.225-1.867-1.904-5.113 5.012c-1.08-.313-2.089-.425-2.996-.3a11.607 11.607 0 0 1 4.74-4.963c1.819-1.019 3.383-.963 4.361-.401.933.535 1.708 1.748 1.513 3.916l-.06.671.504.447c1.096.969 1.552 1.596 1.749 2.195.139.42.184.928.095 1.689zm-3.746 1.34c-1.139.953-1.903 2.291-2.347 3.736l-3.965-4.353-1.972 1.797 5.451 5.984c-.007 1.589.197 3.216.493 4.687A11.933 11.933 0 0 1 3.999 16c0-1.387.385-2.143.839-2.473.428-.315 1.368-.572 3.293.139.696.257 1.501.652 2.423 1.225l.669.416.688-.387c.831-.467 1.465-.301 1.952.04.213.149.396.336.536.527zm2.353 12.49 9.723-10.716-1.975-1.792-3.909 4.308.009-1.352-2.667-.019-.031 4.333-3.311 3.649c-.251-1.361-.4-2.824-.352-4.196.085-2.34 1.02-4.263 2.403-5.024.573-.316 1.585-.44 2.385-.299l1.187.207.327-1.159c.171-.604.623-1.251 1.329-1.827a6.365 6.365 0 0 1 2.445-1.221c1.068-.261 1.979-.125 2.579.288.524.36 1.051 1.096 1.1 2.605v.024l.004.213a11.947 11.947 0 0 1-11.246 11.976z" />
    </symbol>
    <symbol id="shopping-cart-icon" viewBox="0 0 32 32">
      <path fill="#e8e8e2" d="M4.801 1.6a1.6 1.6 0 0 0 0 3.2h1.952l.488 1.955.016.067L9.43 15.51l-1.429 1.427c-2.016 2.016-.589 5.462 2.262 5.462h13.738a1.6 1.6 0 0 0 0-3.2H10.263l1.6-1.6h10.538a1.602 1.602 0 0 0 1.431-.884l4.8-9.6A1.602 1.602 0 0 0 27.201 4.8H10.049l-.496-1.989a1.601 1.601 0 0 0-1.552-1.212h-3.2zm20.8 24.8a2.401 2.401 0 1 1-4.802-.001 2.401 2.401 0 0 1 4.802.001zm-15.2 2.4a2.401 2.401 0 1 0-.001-4.802A2.401 2.401 0 0 0 10.4 28.8z" style="fill:var(--color1, #e8e8e2)"/>
    </symbol>
    <symbol id="youtube-icon" viewBox="0 0 32 32">
      <path fill="#e8e8e2" d="M24.241 6c-1.36-.08-4.16-.16-8.4-.16h-.56c-4.08 0-6.8.08-8.16.24-1.84.16-3.12.64-3.84 1.28-.64.56-1.12 1.6-1.28 2.96-.08.88-.16 2.72-.16 5.52v.4c0 2.64.08 4.48.24 5.36.24 1.28.64 2.24 1.44 2.8.8.64 2.16 1.04 4.08 1.2 1.36.08 4.16.16 8.4.16h.56c4.08 0 6.8-.08 8.16-.24 1.84-.16 3.12-.64 3.84-1.28.64-.56 1.12-1.6 1.28-2.96.08-.88.16-2.72.16-5.52v-.4c0-2.64-.08-4.48-.24-5.36-.24-1.28-.64-2.24-1.44-2.8-.8-.64-2.16-1.04-4.08-1.2zm-3.12 9.84-8.8 5.28V10.56l8.8 5.28z" opacity=".8" style="fill:var(--color1, #e8e8e2)"/>
    </symbol>
  </defs>
</svg>