<svg xmlns="http://www.w3.org/2000/svg" aria-hidden="true" style="position:absolute;width:0;height:0;overflow:hidden">
  <defs>
    <symbol id="close-icon" viewBox="0 0 32 32">
      <path d="m30.143 5.146-3.289-3.289L16 12.711 5.146 1.857 1.857 5.146 12.711 16 1.857 26.854l3.289 3.289L16 19.289l10.854 10.854 3.289-3.289L19.289 16 30.143 5.146z"/>
    </symbol>
    <symbol id="check-mark-icon" viewBox="0 0 32 32">
      <path fill="none" stroke="#e8e8e2" stroke-linecap="round" stroke-linejoin="round" stroke-width="3.556" d="M26.667 8 12 22.667 5.333 16" style="stroke:var(--color1, #e8e8e2)"/>
    </symbol>
    <symbol id="facebook-icon" viewBox="0 0 32 32">
      <path fill="#e8e8e2" d="M19.519 4.64h.96v3.6h-1.2c-.48 0-.96 0-1.2.24s-.24.48-.24 1.04v1.28h2.64v3.04h-2.64v13.2h-4.08V13.76h-2.16v-3.04h2.16V9.68c0-1.76.24-3.04.72-3.6.72-1.04 2.16-1.52 4.32-1.52.24.08.48.08.72.08z" opacity=".8" style="fill:var(--color1, #e8e8e2)"/>
    </symbol>
    <symbol id="logo-icon" viewBox="0 0 32 32">
      <path  d="M17.487 4.624a5.36 5.36 0 0 0-1.817-1.707c-2.011-1.153-4.601-.951-6.992.388C4.239 5.792 1.333 10.466 1.333 16c0 7.387 5.347 13.351 12.329 14.48a14.67 14.67 0 0 0 2.337.187 14.625 14.625 0 0 0 10.426-4.32 14.613 14.613 0 0 0 4.24-10.46c-.031-2.576-1.064-5.737-2.697-8.264-1.627-2.517-4.128-4.811-7.236-4.781-1.517.003-2.553.837-3.245 1.784v-.001zm8.873 5.526a6.332 6.332 0 0 0-1.684-.044l-1.547-2.6-2.291 1.36 1.189 2a9.055 9.055 0 0 0-1.42.833 7.286 7.286 0 0 0-.024-.077c-.356-1.08-1.044-1.967-1.961-2.848l.005-.027c.092-.431.239-.987.459-1.527.497-1.221 1.075-1.716 1.653-1.716h.015c1.721-.019 3.515 1.303 4.975 3.561.227.351.437.712.632 1.083l-.001.001zm-8.215 3.996c-.44.011-.892.06-1.333.156a5.013 5.013 0 0 0-1.416-1.527c-1.053-.74-2.496-1.107-4.056-.524a18.259 18.259 0 0 0-.432-.241l4.311-4.225-1.867-1.904-5.113 5.012c-1.08-.313-2.089-.425-2.996-.3a11.607 11.607 0 0 1 4.74-4.963c1.819-1.019 3.383-.963 4.361-.401.933.535 1.708 1.748 1.513 3.916l-.06.671.504.447c1.096.969 1.552 1.596 1.749 2.195.139.42.184.928.095 1.689zm-3.746 1.34c-1.139.953-1.903 2.291-2.347 3.736l-3.965-4.353-1.972 1.797 5.451 5.984c-.007 1.589.197 3.216.493 4.687A11.933 11.933 0 0 1 3.999 16c0-1.387.385-2.143.839-2.473.428-.315 1.368-.572 3.293.139.696.257 1.501.652 2.423 1.225l.669.416.688-.387c.831-.467 1.465-.301 1.952.04.213.149.396.336.536.527zm2.353 12.49 9.723-10.716-1.975-1.792-3.909 4.308.009-1.352-2.667-.019-.031 4.333-3.311 3.649c-.251-1.361-.4-2.824-.352-4.196.085-2.34 1.02-4.263 2.403-5.024.573-.316 1.585-.44 2.385-.299l1.187.207.327-1.159c.171-.604.623-1.251 1.329-1.827a6.365 6.365 0 0 1 2.445-1.221c1.068-.261 1.979-.125 2.579.288.524.36 1.051 1.096 1.1 2.605v.024l.004.213a11.947 11.947 0 0 1-11.246 11.976z" />
    </symbol>
    <symbol id="shopping-cart-icon" viewBox="0 0 32 32">
      <path d="M4.801 1.6c-0.424 0-0.831 0.169-1.131 0.469s-0.469 0.707-0.469 1.131c0 0.424 0.169 0.831 0.469 1.131s0.707 0.469 1.131 0.469h1.952l0.488 1.955c0.005 0.022 0.010 0.045 0.016 0.067l2.173 8.688-1.429 1.427c-2.016 2.016-0.589 5.462 2.262 5.462h13.738c0.424 0 0.831-0.169 1.131-0.469s0.469-0.707 0.469-1.131c0-0.424-0.169-0.831-0.469-1.131s-0.707-0.469-1.131-0.469h-13.738l1.6-1.6h10.538c0.297-0 0.588-0.083 0.841-0.239s0.457-0.38 0.59-0.645l4.8-9.6c0.122-0.244 0.179-0.515 0.167-0.787s-0.094-0.537-0.237-0.769c-0.143-0.232-0.343-0.423-0.582-0.556s-0.506-0.203-0.779-0.203h-17.152l-0.496-1.989c-0.087-0.346-0.286-0.653-0.568-0.873s-0.628-0.339-0.984-0.339h-3.2zM25.601 26.4c0 0.636-0.253 1.247-0.703 1.697s-1.061 0.703-1.697 0.703c-0.637 0-1.247-0.253-1.697-0.703s-0.703-1.061-0.703-1.697c0-0.636 0.253-1.247 0.703-1.697s1.060-0.703 1.697-0.703c0.636 0 1.247 0.253 1.697 0.703s0.703 1.061 0.703 1.697zM10.401 28.8c0.636 0 1.247-0.253 1.697-0.703s0.703-1.061 0.703-1.697c0-0.636-0.253-1.247-0.703-1.697s-1.061-0.703-1.697-0.703c-0.636 0-1.247 0.253-1.697 0.703s-0.703 1.061-0.703 1.697c0 0.636 0.253 1.247 0.703 1.697s1.061 0.703 1.697 0.703z"></path>
    </symbol>
    <symbol id="youtube-icon" viewBox="0 0 32 32">
      <path fill="#e8e8e2" d="M24.241 6c-1.36-.08-4.16-.16-8.4-.16h-.56c-4.08 0-6.8.08-8.16.24-1.84.16-3.12.64-3.84 1.28-.64.56-1.12 1.6-1.28 2.96-.08.88-.16 2.72-.16 5.52v.4c0 2.64.08 4.48.24 5.36.24 1.28.64 2.24 1.44 2.8.8.64 2.16 1.04 4.08 1.2 1.36.08 4.16.16 8.4.16h.56c4.08 0 6.8-.08 8.16-.24 1.84-.16 3.12-.64 3.84-1.28.64-.56 1.12-1.6 1.28-2.96.08-.88.16-2.72.16-5.52v-.4c0-2.64-.08-4.48-.24-5.36-.24-1.28-.64-2.24-1.44-2.8-.8-.64-2.16-1.04-4.08-1.2zm-3.12 9.84-8.8 5.28V10.56l8.8 5.28z" opacity=".8" style="fill:var(--color1, #e8e8e2)"/>
    </symbol>
    <symbol id="instagram-icon" viewBox="0 0 32 32">
      <path fill="#e8e8e2" d="M28.718 10.756a9.264 9.264 0 0 0-.596-3.145 6.547 6.547 0 0 0-3.743-3.737 9.42 9.42 0 0 0-3.108-.596c-1.368-.061-1.801-.078-5.273-.078s-3.916 0-5.274.078a9.413 9.413 0 0 0-3.106.596 6.541 6.541 0 0 0-3.743 3.737 9.288 9.288 0 0 0-.596 3.101c-.061 1.367-.08 1.8-.08 5.265s0 3.909.08 5.265a9.335 9.335 0 0 0 .596 3.104 6.548 6.548 0 0 0 3.744 3.735 9.37 9.37 0 0 0 3.106.639c1.369.061 1.803.08 5.274.08s3.916 0 5.274-.08a9.362 9.362 0 0 0 3.108-.595 6.555 6.555 0 0 0 3.743-3.737 9.35 9.35 0 0 0 .596-3.104c.061-1.365.08-1.798.08-5.265-.003-3.466-.003-3.906-.082-5.264zM15.99 22.531c-3.631 0-6.572-2.936-6.572-6.561s2.941-6.561 6.572-6.561c3.628 0 6.572 2.936 6.572 6.561s-2.944 6.561-6.572 6.561zm6.834-11.835a1.53 1.53 0 1 1 0-3.06 1.53 1.53 0 1 1 0 3.06z" opacity=".8"/>
      <path fill="#e8e8e2" d="M15.992 19.976a4.004 4.004 0 1 0 0-8.009 4.004 4.004 0 0 0 0 8.009z" opacity=".8"/>
    </symbol>
    <symbol id="search-icon" viewBox="0 0 32 32">
      <path d="M20.667 18.667h-1.053l-.373-.36a8.625 8.625 0 0 0 2.093-5.64 8.668 8.668 0 0 0-5.35-8.007A8.66 8.66 0 0 0 6.54 6.539a8.67 8.67 0 0 0-1.879 9.444 8.671 8.671 0 0 0 8.007 5.35 8.63 8.63 0 0 0 5.64-2.093l.36.373v1.053l6.667 6.653 1.987-1.987-6.653-6.667zm-8 0c-3.32 0-6-2.68-6-6s2.68-6 6-6 6 2.68 6 6-2.68 6-6 6z"/>
    </symbol>
    <symbol id="discount-cart" viewBox="0 0 18 18" fill="none">
      <path d="M2.70005 0.900024C2.46135 0.900024 2.23244 0.994846 2.06365 1.16363C1.89487 1.33241 1.80005 1.56133 1.80005 1.80002C1.80005 2.03872 1.89487 2.26764 2.06365 2.43642C2.23244 2.6052 2.46135 2.70002 2.70005 2.70002H3.79805L4.07255 3.79982C4.07528 3.81249 4.07828 3.82509 4.08155 3.83762L5.30375 8.72462L4.50005 9.52742C3.36605 10.6614 4.16885 12.6 5.77265 12.6H13.5C13.7387 12.6 13.9677 12.5052 14.1364 12.3364C14.3052 12.1676 14.4 11.9387 14.4 11.7C14.4 11.4613 14.3052 11.2324 14.1364 11.0636C13.9677 10.8948 13.7387 10.8 13.5 10.8H5.77265L6.67265 9.90002H12.6C12.7671 9.89993 12.9309 9.85333 13.073 9.76543C13.2151 9.67752 13.33 9.5518 13.4046 9.40232L16.1046 4.00232C16.1732 3.86515 16.2056 3.71273 16.1987 3.55953C16.1918 3.40633 16.1458 3.25744 16.0652 3.12698C15.9846 2.99652 15.872 2.88882 15.7381 2.81409C15.6042 2.73937 15.4534 2.70011 15.3 2.70002H5.65205L5.37305 1.58132C5.32429 1.3867 5.21191 1.21395 5.05374 1.09051C4.89557 0.967076 4.70068 0.90003 4.50005 0.900024H2.70005ZM14.4 14.85C14.4 15.2081 14.2578 15.5514 14.0046 15.8046C13.7515 16.0578 13.4081 16.2 13.05 16.2C12.692 16.2 12.3486 16.0578 12.0955 15.8046C11.8423 15.5514 11.7 15.2081 11.7 14.85C11.7 14.492 11.8423 14.1486 12.0955 13.8954C12.3486 13.6423 12.692 13.5 13.05 13.5C13.4081 13.5 13.7515 13.6423 14.0046 13.8954C14.2578 14.1486 14.4 14.492 14.4 14.85ZM5.85005 16.2C6.20809 16.2 6.55147 16.0578 6.80464 15.8046C7.05782 15.5514 7.20005 15.2081 7.20005 14.85C7.20005 14.492 7.05782 14.1486 6.80464 13.8954C6.55147 13.6423 6.20809 13.5 5.85005 13.5C5.49201 13.5 5.14863 13.6423 4.89545 13.8954C4.64228 14.1486 4.50005 14.492 4.50005 14.85C4.50005 15.2081 4.64228 15.5514 4.89545 15.8046C5.14863 16.0578 5.49201 16.2 5.85005 16.2Z" fill="#E8E8E2"/>
    </symbol>
    <symbol id="discount-checked" viewBox="0 0 18 18" fill="none">
     <path d="M15 4.5L6.75 12.75L3 9" stroke="#E8E8E2" stroke-width="2" stroke-linecap="round" stroke-linejoin="round"/>
    </symbol>
    <symbol id="discount-icon" viewBox="0 0 60 60" >
      <circle cx="30" cy="30" r="30" fill="#6D8434"/>
      <path  d="m50.525 39.117-.437 1.182-8.05-2.966.436-1.182.664.245.009-.023c-.282-.45-.514-1.174-.185-2.063.544-1.475 2.096-2.143 3.988-1.446 1.892.697 2.637 2.212 2.092 3.686-.328.89-.953 1.299-1.504 1.441l-.008.023 2.995 1.103Zm-6.67-4.248c-.357.968.222 1.86 1.494 2.328 1.284.473 2.293.167 2.65-.8.383-1.036-.36-1.936-1.486-2.351-1.126-.415-2.275-.212-2.658.823ZM47.049 42.242c.206-.28.612-.43.961-.174.349.255.32.68.114.96-.22.3-.61.446-.958.191-.349-.255-.337-.677-.117-.977Zm-.464-1.112-.745 1.016-4.951-3.618.745-1.016 4.95 3.618ZM40.928 43.693c-1.04.513-2.145 1.096-3.077-.032-.75-.906-.438-2.111.711-3.057 1.529-1.258 2.775-1.088 3.647-.127l-.945.778c-.466-.47-1.048-.722-2.049.101-.676.557-.688 1.127-.443 1.423.489.592 1.092.173 1.925-.233.895-.442 2.037-1.133 2.924-.06.642.777.468 1.961-.717 2.938-1.288 1.06-2.473.87-3.218.1l.945-.779c.37.317.87.544 1.629-.082.583-.48.715-.961.44-1.294-.398-.481-.956-.084-1.772.324ZM34.407 47.179c.247.575.866 1.163 1.888.816 1.17-.398 1.33-1.567.957-2.657-.372-1.09-1.202-1.924-2.384-1.522-1.022.347-1.157 1.178-.981 1.841l-1.193.405c-.367-1.37.33-2.71 1.841-3.223 1.739-.59 3.29.277 3.91 2.094.62 1.817-.078 3.448-1.805 4.035-1.511.513-2.83-.117-3.427-1.384l1.194-.405ZM29.262 43.585c1.916.117 2.997 1.517 2.882 3.422-.116 1.904-1.359 3.163-3.275 3.046-1.916-.117-2.997-1.518-2.882-3.422.116-1.905 1.359-3.163 3.275-3.046Zm-.063 1.03c-1.198-.074-1.878.835-1.954 2.092-.077 1.27.489 2.242 1.687 2.316 1.197.073 1.877-.823 1.954-2.093.076-1.258-.489-2.242-1.687-2.315ZM20.195 47.39l-1.134-.55 2.683-5.514 1.133.55-.346.712.021.01c.502-.29 1.284-.444 2.234.017 1.026.498 1.547 1.484.932 2.747l-1.853 3.81-1.144-.556 1.696-3.486c.362-.744.28-1.37-.498-1.748-.874-.424-1.693-.168-2.092.652l-1.633 3.356ZM14.687 43.044c-.76-.85-.87-1.959.178-2.894l3.16-2.82.85.946-2.892 2.582c-.618.551-.78 1.162-.203 1.805.649.724 1.504.797 2.184.19l2.784-2.486.841.939-4.574 4.083-.841-.938.59-.527-.015-.018c-.575.078-1.357-.076-2.062-.862ZM12.089 36.33l.474 1.05 3.031-1.365c.635-.286.573-.626.193-1.35l.941-.424c.159.205.305.442.444.748.415.919.227 1.609-.955 2.14l-3.13 1.41.367.808-.941.424-.366-.81-1.762.794-.524-1.159 1.761-.793-.474-1.05.94-.423ZM8.426 23.714l.274-1.23 8.375 1.863-.274 1.23-.69-.154-.006.024c.34.407.666 1.095.46 2.02-.342 1.534-1.79 2.405-3.757 1.967-1.968-.438-2.91-1.84-2.568-3.374.206-.925.77-1.415 1.297-1.63l.005-.023-3.116-.693Zm7.178 3.318c.225-1.007-.469-1.813-1.792-2.108-1.336-.297-2.294.142-2.518 1.15-.24 1.077.616 1.87 1.787 2.13 1.172.26 2.284-.094 2.524-1.172ZM11.442 20.153c-.166.305-.549.507-.929.301-.38-.206-.408-.63-.242-.936.178-.327.545-.524.925-.318.38.206.424.626.246.953Zm.61 1.04.601-1.107 5.39 2.923-.601 1.107-5.39-2.923ZM17.327 17.876c.963-.645 1.982-1.369 3.054-.372.862.8.71 2.036-.305 3.124-1.35 1.448-2.608 1.442-3.598.604l.835-.895c.524.405 1.134.578 2.018-.37.597-.64.534-1.206.253-1.467-.562-.523-1.106-.029-1.878.482-.83.556-1.87 1.39-2.89.442-.739-.686-.722-1.883.326-3.006 1.138-1.22 2.337-1.186 3.177-.52l-.835.895c-.41-.265-.933-.425-1.605.295-.515.552-.582 1.047-.266 1.341.457.425.959-.043 1.714-.553Z"/>
      <path  d="M23.243 13.593c-.323-.536-1.016-1.035-1.982-.552-1.106.552-1.105 1.732-.588 2.762.516 1.03 1.452 1.742 2.568 1.185.966-.483.987-1.325.723-1.957l1.127-.563c.55 1.308.04 2.73-1.387 3.442-1.643.82-3.297.172-4.159-1.544-.86-1.716-.39-3.427 1.242-4.242 1.428-.713 2.82-.268 3.583.906l-1.127.563ZM28.822 16.435c-1.915.14-3.174-1.104-3.314-3.007-.14-1.903.923-3.316 2.838-3.455 1.915-.14 3.174 1.104 3.314 3.007.14 1.903-.923 3.316-2.838 3.455Zm-.076-1.029c1.197-.087 1.75-1.078 1.657-2.334-.093-1.269-.784-2.157-1.981-2.07-1.197.087-1.75 1.066-1.657 2.335.093 1.256.785 2.156 1.981 2.07ZM37.349 11.448l1.197.394-1.925 5.822-1.197-.394.249-.752-.023-.008c-.458.354-1.213.611-2.216.28-1.082-.357-1.73-1.266-1.29-2.599l1.33-4.022 1.208.399-1.216 3.68c-.26.786-.095 1.397.725 1.667.923.305 1.7-.058 1.987-.924l1.171-3.543ZM43.394 15.008c.865.742 1.118 1.828.203 2.892l-2.762 3.212-.966-.828 2.527-2.938c.54-.628.62-1.255-.036-1.817-.738-.633-1.595-.593-2.19.098l-2.433 2.83-.957-.82 3.998-4.649.957.82-.517.6.019.016c.559-.153 1.355-.103 2.157.584ZM46.844 21.267l-.611-.976-2.82 1.76c-.59.368-.484.697-.01 1.363l-.875.546a3.656 3.656 0 0 1-.54-.68c-.536-.855-.442-1.564.657-2.25l2.912-1.817-.471-.753.875-.546.472.753 1.639-1.023.675 1.078-1.639 1.022.612.977-.876.546ZM32.917 27.667c-5.25 1.166-6.475 4.765-7.689 7.781l1.103.385.554-1.341c.28.099.572.175.782.175 6.416 0 8.166-9.917 8.166-9.917-.583 1.167-4.666 1.313-7.583 1.896s-4.083 3.062-4.083 4.229c0 1.167 1.02 2.188 1.02 2.188 1.896-5.396 7.73-5.396 7.73-5.396Z"/>
    </symbol>
    <symbol id="shadow-icon" viewBox="0 0 87 32">
        <path d="M77.647 16c0 3.639-15.275 6.588-34.118 6.588S9.411 19.638 9.411 16c0-3.639 15.275-6.588 34.118-6.588S77.647 12.362 77.647 16z"/>
    </symbol>
    <symbol id="categories-icon" viewBox="0 0 32 32">
        <path stroke-linejoin="round" stroke-linecap="round" stroke-miterlimit="4" stroke-width="3.2" d="M8 12l8 8 8-8"></path>
    </symbol>
    <symbol id="arrow" viewBox="0 0 16 16" class='bi bi-arrow-up' >
  <path fill-rule='evenodd' fill='currentColor' d='M7.646 8.146a.5.5 0 0 1 .708 0l3 3a.5.5 0 0 1-.708.708L8 9.707l-2.646 2.647a.5.5 0 1 1-.708-.708l3-3a.5.5 0 0 1 0-.708z'/><path fill-rule='evenodd' fill='currentColor' d='M7.646 1.646a.5.5 0 0 1 .708 0l3 3a.5.5 0 0 1-.708.708L8 3.707 5.354 6.354a.5.5 0 1 1-.708-.708l3-3z'/>
  </symbol>
  </defs>
</svg>